<svg width="128" height="38" viewBox="0 0 128 38" fill="none" xmlns="http://www.w3.org/2000/svg">
<path d="M22.0005 26V12.1771H25.6349V17.6491H29.8818V12.1771H33.5162V26H29.8818V20.6505H25.6349V26H22.0005ZM40.1542 26.245C38.9836 26.245 38.024 26.0613 37.2753 25.6937C36.5267 25.3262 35.9686 24.7409 35.601 23.9378C35.2471 23.1347 35.0702 22.0934 35.0702 20.8139C35.0702 19.5479 35.2539 18.527 35.6215 17.7512C35.989 16.9753 36.5471 16.4036 37.2957 16.0361C38.058 15.6685 39.0108 15.4848 40.1542 15.4848C41.2976 15.4848 42.2437 15.6685 42.9923 16.0361C43.741 16.4036 44.2991 16.9753 44.6666 17.7512C45.0341 18.527 45.2179 19.5479 45.2179 20.8139C45.2179 22.0934 45.0409 23.1347 44.687 23.9378C44.3331 24.7409 43.7818 25.3262 43.0332 25.6937C42.2845 26.0613 41.3249 26.245 40.1542 26.245ZM40.1542 23.3661C40.5762 23.3661 40.8893 23.2844 41.0935 23.1211C41.3112 22.9577 41.461 22.6855 41.5427 22.3044C41.6243 21.9232 41.6652 21.4264 41.6652 20.8139C41.6652 20.1877 41.6175 19.6977 41.5222 19.3438C41.427 18.9898 41.2704 18.738 41.0526 18.5883C40.8484 18.425 40.549 18.3433 40.1542 18.3433C39.7595 18.3433 39.4532 18.425 39.2354 18.5883C39.0176 18.738 38.8611 18.9967 38.7658 19.3642C38.6705 19.7181 38.6229 20.2013 38.6229 20.8139C38.6229 21.4264 38.6637 21.9232 38.7454 22.3044C38.8271 22.6855 38.9768 22.9577 39.1946 23.1211C39.4124 23.2844 39.7323 23.3661 40.1542 23.3661ZM46.683 26V15.7298H50.1745V16.3219C50.4739 16.145 50.8755 15.9612 51.3791 15.7706C51.8964 15.5801 52.3796 15.4848 52.8288 15.4848C53.4277 15.4848 53.9178 15.5733 54.2989 15.7502C54.68 15.9136 54.9931 16.145 55.2381 16.4444C55.4695 16.3083 55.7622 16.1654 56.1161 16.0156C56.47 15.8659 56.8511 15.7434 57.2595 15.6481C57.6815 15.5392 58.0966 15.4848 58.505 15.4848C59.5531 15.4848 60.3562 15.6753 60.9143 16.0565C61.4724 16.424 61.8535 16.9957 62.0577 17.7716C62.2755 18.5339 62.3844 19.5139 62.3844 20.7118V26H58.8929V21.0997C58.8929 20.5144 58.8589 20.0312 58.7908 19.65C58.7364 19.2689 58.6207 18.9898 58.4437 18.8129C58.2668 18.6223 58.015 18.527 57.6883 18.527C57.4024 18.527 57.1098 18.5679 56.8103 18.6496C56.5245 18.7176 56.2999 18.7925 56.1365 18.8741C56.2046 19.0919 56.2522 19.405 56.2794 19.8134C56.3067 20.2217 56.3203 20.6369 56.3203 21.0589V26H52.8084V21.1201C52.8084 20.5212 52.7744 20.0312 52.7063 19.65C52.6519 19.2689 52.5362 18.9898 52.3592 18.8129C52.1959 18.6223 51.9508 18.527 51.6242 18.527C51.3519 18.527 51.0797 18.5679 50.8074 18.6496C50.5352 18.7176 50.3242 18.7857 50.1745 18.8537V26H46.683ZM68.5621 26.245C67.3642 26.245 66.4114 26.0613 65.7036 25.6937C64.9958 25.3126 64.4853 24.7341 64.1722 23.9582C63.8728 23.1823 63.723 22.2023 63.723 21.018C63.723 19.7793 63.9 18.7516 64.2539 17.9349C64.6214 17.1182 65.1727 16.5057 65.9078 16.0973C66.6428 15.689 67.5752 15.4848 68.705 15.4848C70.3248 15.4848 71.5431 15.8659 72.3598 16.6282C73.1901 17.3904 73.6053 18.5951 73.6053 20.2421L73.442 21.9573H67.2553C67.269 22.5017 67.3915 22.9101 67.6229 23.1823C67.8543 23.441 68.2558 23.5703 68.8275 23.5703C69.2631 23.5703 69.7463 23.5635 70.2772 23.5499C70.8217 23.5226 71.3593 23.4954 71.8902 23.4682C72.4347 23.441 72.8907 23.4137 73.2582 23.3865L73.3399 25.7346C72.986 25.8026 72.5368 25.8775 71.9923 25.9592C71.4478 26.0408 70.8761 26.1089 70.2772 26.1633C69.6783 26.2178 69.1066 26.245 68.5621 26.245ZM67.2349 19.895H70.0934C70.0934 19.2008 69.9845 18.7176 69.7667 18.4454C69.549 18.1595 69.195 18.0166 68.705 18.0166C68.2014 18.0166 67.8339 18.1663 67.6024 18.4658C67.371 18.7516 67.2485 19.2281 67.2349 19.895ZM75.3644 26V18.5883H74.5477V15.7298H75.3644V15.3623C75.3644 14.3958 75.4597 13.6336 75.6503 13.0755C75.8409 12.5038 76.1744 12.0954 76.6508 11.8504C77.1272 11.5918 77.7806 11.4624 78.6109 11.4624C78.8831 11.4624 79.1758 11.4761 79.4889 11.5033C79.8155 11.5305 80.1218 11.5645 80.4077 11.6054C80.7071 11.6326 80.9453 11.6598 81.1223 11.687L81.1019 14.3005C80.8977 14.3005 80.6867 14.3005 80.4689 14.3005C80.2647 14.2869 80.081 14.2801 79.9176 14.2801C79.659 14.2801 79.448 14.3141 79.2847 14.3822C79.135 14.4503 79.0261 14.5524 78.958 14.6885C78.9035 14.8246 78.8763 15.022 78.8763 15.2806V15.7298H80.9794V18.5883H78.8763V26H75.3644ZM82.1153 26V15.7298H85.6067V26H82.1153ZM82.0949 14.5047V11.83H85.6272V14.5047H82.0949ZM87.3992 26V15.7298H90.8907V16.3219C91.0948 16.1994 91.3399 16.0769 91.6257 15.9544C91.9116 15.8183 92.211 15.7094 92.5241 15.6277C92.8508 15.5324 93.1571 15.4848 93.4429 15.4848C94.4094 15.4848 95.1648 15.6549 95.7093 15.9952C96.2674 16.3219 96.6621 16.8732 96.8935 17.6491C97.1249 18.425 97.2406 19.4595 97.2406 20.7526V26H93.7083V20.9568C93.7083 20.3715 93.6743 19.9019 93.6062 19.5479C93.5382 19.194 93.4157 18.9354 93.2387 18.7721C93.0618 18.6087 92.81 18.527 92.4833 18.527C92.2927 18.527 92.0953 18.5475 91.8911 18.5883C91.7006 18.6155 91.5168 18.6564 91.3399 18.7108C91.1629 18.7653 91.0132 18.8197 90.8907 18.8741V26H87.3992ZM102.518 26.245C101.96 26.245 101.463 26.177 101.027 26.0408C100.605 25.9047 100.238 25.7005 99.9246 25.4283C99.6252 25.1424 99.3734 24.7885 99.1692 24.3666C98.9786 23.9446 98.8357 23.4478 98.7404 22.8761C98.6451 22.2907 98.5975 21.6306 98.5975 20.8955C98.5975 19.7521 98.7404 18.7789 99.0262 17.9758C99.3121 17.1727 99.7817 16.5601 100.435 16.1381C101.088 15.7026 101.953 15.4848 103.028 15.4848C103.3 15.4848 103.627 15.5052 104.008 15.546C104.403 15.5869 104.723 15.6209 104.968 15.6481V11.7075H108.48V26H105.009L104.988 25.4691C104.811 25.578 104.58 25.6937 104.294 25.8162C104.022 25.9387 103.729 26.0408 103.416 26.1225C103.117 26.2042 102.817 26.245 102.518 26.245ZM103.539 23.3457C103.716 23.3457 103.893 23.3321 104.069 23.3048C104.246 23.264 104.417 23.2232 104.58 23.1823C104.743 23.1279 104.873 23.087 104.968 23.0598V18.4862C104.873 18.459 104.75 18.4386 104.6 18.425C104.451 18.4113 104.294 18.3977 104.131 18.3841C103.967 18.3705 103.824 18.3637 103.702 18.3637C103.28 18.3637 102.96 18.4726 102.742 18.6904C102.525 18.8946 102.368 19.1872 102.273 19.5684C102.191 19.9359 102.15 20.3783 102.15 20.8955C102.15 21.3311 102.177 21.7054 102.232 22.0185C102.286 22.3316 102.368 22.5902 102.477 22.7944C102.599 22.985 102.749 23.1279 102.926 23.2232C103.103 23.3048 103.307 23.3457 103.539 23.3457ZM114.762 26.245C113.564 26.245 112.611 26.0613 111.903 25.6937C111.195 25.3126 110.685 24.7341 110.372 23.9582C110.072 23.1823 109.923 22.2023 109.923 21.018C109.923 19.7793 110.1 18.7516 110.453 17.9349C110.821 17.1182 111.372 16.5057 112.107 16.0973C112.842 15.689 113.775 15.4848 114.905 15.4848C116.524 15.4848 117.743 15.8659 118.559 16.6282C119.39 17.3904 119.805 18.5951 119.805 20.2421L119.641 21.9573H113.455C113.468 22.5017 113.591 22.9101 113.822 23.1823C114.054 23.441 114.455 23.5703 115.027 23.5703C115.463 23.5703 115.946 23.5635 116.477 23.5499C117.021 23.5226 117.559 23.4954 118.09 23.4682C118.634 23.441 119.09 23.4137 119.458 23.3865L119.539 25.7346C119.185 25.8026 118.736 25.8775 118.192 25.9592C117.647 26.0408 117.076 26.1089 116.477 26.1633C115.878 26.2178 115.306 26.245 114.762 26.245ZM113.434 19.895H116.293C116.293 19.2008 116.184 18.7176 115.966 18.4454C115.748 18.1595 115.395 18.0166 114.905 18.0166C114.401 18.0166 114.033 18.1663 113.802 18.4658C113.571 18.7516 113.448 19.2281 113.434 19.895ZM121.196 26V15.7298H124.688V16.8324C124.906 16.6554 125.164 16.4716 125.464 16.2811C125.777 16.0769 126.104 15.8999 126.444 15.7502C126.784 15.6005 127.104 15.5052 127.403 15.4644V18.7925C127.118 18.8197 126.805 18.8878 126.464 18.9967C126.124 19.1056 125.797 19.2281 125.484 19.3642C125.185 19.5003 124.919 19.6228 124.688 19.7317V26H121.196Z" fill="#58806C"/>
<path d="M3.11582 12.2782L3.11582 25.9582L17 25.9582L17 12.2782L3.11582 12.2782ZM15.5707 24.529L5.81098 24.529L8.07737 22.2013L8.07737 19.8737L4.54507 23.5081L4.54507 13.7075L14.3048 13.7075L12.0793 15.9943L12.0793 18.3219L15.5707 14.7284L15.5707 24.529ZM10.9971 15.8309C10.9971 15.2388 10.5479 14.7896 9.99666 14.7896C9.42495 14.7896 8.99618 15.2388 8.99618 15.8309C8.99618 16.4026 9.42495 16.8518 9.99666 16.8518C10.5479 16.8518 10.9971 16.4026 10.9971 15.8309ZM9.0166 23.2222L10.9563 23.2222L10.9563 22.4463C10.9563 21.8338 10.5479 21.405 9.99666 21.405C9.42495 21.405 9.0166 21.8338 9.0166 22.4463L9.0166 23.2222ZM9.0166 19.6491L9.0166 21.0987L10.9563 21.0987L10.9563 19.6491L10.5479 19.6491L10.5479 20.6291L10.2008 20.6291L10.2008 19.7716L9.79248 19.7716L9.79248 20.6291L9.42495 20.6291L9.42495 19.6491L9.0166 19.6491ZM10.65 18.3423L10.65 18.0973L9.97624 17.6481L10.9563 17.6481L10.9563 17.1785L9.0166 17.1785L9.0166 17.5256L10.0579 18.2198L9.0166 18.8936L9.0166 19.2611L10.9563 19.2611L10.9563 18.7915L9.97624 18.7915L10.65 18.3423ZM9.42495 15.8309C9.42495 15.5247 9.69039 15.3001 9.99666 15.3001C10.2825 15.3001 10.5479 15.5247 10.5479 15.8309C10.5479 16.1576 10.2825 16.3618 9.99666 16.3618C9.69039 16.3618 9.42495 16.1576 9.42495 15.8309ZM10.5479 22.7322L9.44537 22.7322L9.44537 22.4463C9.44537 22.1196 9.69039 21.895 9.99666 21.895C10.2825 21.895 10.5479 22.1196 10.5479 22.4463L10.5479 22.7322Z" fill="#FF969C"/>
</svg>
